<?xml version="1.0" encoding="UTF-8" standalone="no"?>
<!-- Created with Inkscape (http://www.inkscape.org/) -->

<svg
   xmlns:dc="http://purl.org/dc/elements/1.1/"
   xmlns:cc="http://creativecommons.org/ns#"
   xmlns:rdf="http://www.w3.org/1999/02/22-rdf-syntax-ns#"
   xmlns:svg="http://www.w3.org/2000/svg"
   xmlns="http://www.w3.org/2000/svg"
   xmlns:sodipodi="http://sodipodi.sourceforge.net/DTD/sodipodi-0.dtd"
   xmlns:inkscape="http://www.inkscape.org/namespaces/inkscape"
   width="148"
   height="85.447838"
   id="svg2"
   inkscape:label="Pozadí"
   version="1.1"
   inkscape:version="0.48.4 r9939"
   sodipodi:docname="tile_big_orange.svg">
  <defs
     id="defs4552" />
  <sodipodi:namedview
     id="base"
     pagecolor="#ffffff"
     bordercolor="#666666"
     borderopacity="1.0"
     inkscape:pageopacity="0.0"
     inkscape:pageshadow="2"
     inkscape:zoom="3.959798"
     inkscape:cx="67.099744"
     inkscape:cy="34.95644"
     inkscape:document-units="px"
     inkscape:current-layer="g2988"
     showgrid="true"
     fit-margin-top="0"
     fit-margin-left="0"
     fit-margin-right="0"
     fit-margin-bottom="0"
     inkscape:window-width="1410"
     inkscape:window-height="859"
     inkscape:window-x="391"
     inkscape:window-y="156"
     inkscape:window-maximized="0"
     inkscape:snap-bbox="true"
     inkscape:bbox-paths="true"
     inkscape:bbox-nodes="true"
     inkscape:snap-bbox-edge-midpoints="true">
    <inkscape:grid
       empspacing="5"
       visible="true"
       enabled="true"
       snapvisiblegridlinesonly="true"
       type="xygrid"
       id="grid4600" />
  </sodipodi:namedview>
  <metadata
     id="metadata4555">
    <rdf:RDF>
      <cc:Work
         rdf:about="">
        <dc:format>image/svg+xml</dc:format>
        <dc:type
           rdf:resource="http://purl.org/dc/dcmitype/StillImage" />
        <dc:title />
      </cc:Work>
    </rdf:RDF>
  </metadata>
  <g
     inkscape:label="Vrstva 1"
     inkscape:groupmode="layer"
     id="layer1"
     transform="translate(-371.65439,-395.25676)">
    <g
       transform="matrix(1.85,0,0,1.85,-269.45293,281.35965)"
       id="use5008-7">
      <path
         transform="matrix(1.038753,0,0,1.038753,-5.5887631,10.921865)"
         d="M 377.50386,82.103401 358.25,93.21962 338.99614,82.103401 l 0,-22.232437 19.25386,-11.116219 19.25386,11.116219 z"
         inkscape:randomized="0"
         inkscape:rounded="0"
         inkscape:flatsided="true"
         sodipodi:arg2="1.0471976"
         sodipodi:arg1="0.52359878"
         sodipodi:r2="19.253855"
         sodipodi:r1="22.232437"
         sodipodi:cy="70.987183"
         sodipodi:cx="358.25"
         sodipodi:sides="6"
         id="path5349"
         style="fill:#ffffff;fill-opacity:1;stroke:none"
         sodipodi:type="star" />
      <path
         transform="translate(-49.393001,-10.757185)"
         d="m 415.875,74.4375 a 0.70717748,0.70717748 0 0 0 -0.28125,0.09375 l -17.53125,10.125 a 0.70717748,0.70717748 0 0 0 -0.375,0.625 l 0,20.28125 a 0.70717748,0.70717748 0 0 0 0.375,0.625 l 17.53125,10.125 a 0.70717748,0.70717748 0 0 0 0.6875,0 l 17.53125,-10.125 a 0.70717748,0.70717748 0 0 0 0.375,-0.625 l 0,-20.28125 a 0.70717748,0.70717748 0 0 0 -0.375,-0.625 l -17.53125,-10.125 A 0.70717748,0.70717748 0 0 0 415.875,74.4375 z"
         id="path5351"
         style="fill:#ff8427;fill-opacity:1;stroke:none"
         inkscape:original="M 415.9375 75.15625 L 398.40625 85.28125 L 398.40625 105.5625 L 415.9375 115.6875 L 433.46875 105.5625 L 433.46875 85.28125 L 415.9375 75.15625 z "
         inkscape:radius="0.70710677"
         sodipodi:type="inkscape:offset" />
    </g>
    <g
       id="g2988"
       transform="matrix(1.85,0,0,1.85,-195.45293,281.35965)">
      <path
         sodipodi:type="star"
         style="fill:#ffffff;fill-opacity:1;stroke:none"
         id="path2990"
         sodipodi:sides="6"
         sodipodi:cx="358.25"
         sodipodi:cy="70.987183"
         sodipodi:r1="22.232437"
         sodipodi:r2="19.253855"
         sodipodi:arg1="0.52359878"
         sodipodi:arg2="1.0471976"
         inkscape:flatsided="true"
         inkscape:rounded="0"
         inkscape:randomized="0"
         d="M 377.50386,82.103401 358.25,93.21962 338.99614,82.103401 l 0,-22.232437 19.25386,-11.116219 19.25386,11.116219 z"
         transform="matrix(1.038753,0,0,1.038753,-5.5887631,10.921865)" />
      <path
         sodipodi:type="inkscape:offset"
         inkscape:radius="0.70710677"
         inkscape:original="M 415.9375 75.15625 L 398.40625 85.28125 L 398.40625 105.5625 L 415.9375 115.6875 L 433.46875 105.5625 L 433.46875 85.28125 L 415.9375 75.15625 z "
         style="fill:#ffa765;fill-opacity:1;stroke:none"
         id="path2992"
         d="m 415.875,74.4375 a 0.70717748,0.70717748 0 0 0 -0.28125,0.09375 l -17.53125,10.125 a 0.70717748,0.70717748 0 0 0 -0.375,0.625 l 0,20.28125 a 0.70717748,0.70717748 0 0 0 0.375,0.625 l 17.53125,10.125 a 0.70717748,0.70717748 0 0 0 0.6875,0 l 17.53125,-10.125 a 0.70717748,0.70717748 0 0 0 0.375,-0.625 l 0,-20.28125 a 0.70717748,0.70717748 0 0 0 -0.375,-0.625 l -17.53125,-10.125 A 0.70717748,0.70717748 0 0 0 415.875,74.4375 z"
         transform="translate(-49.393001,-10.757185)" />
    </g>
  </g>
</svg>
