<svg xmlns="http://www.w3.org/2000/svg" width="148" height="85.448"><g><g><path d="M74.116 64.11L37.11 85.477.105 64.11V21.38L37.11.015 74.116 21.38z" fill="#fff"/><path transform="matrix(1.85 0 0 1.85 -732.484 -133.797)" d="M415.875 74.438a.707.707 0 0 0-.28.093L398.06 84.657a.707.707 0 0 0-.375.625v20.282a.707.707 0 0 0 .375.626l17.532 10.124a.707.707 0 0 0 .687 0l17.533-10.124a.707.707 0 0 0 .375-.626v-20.28a.707.707 0 0 0-.375-.626L416.28 74.53a.707.707 0 0 0-.405-.093z" fill="#ff8427"/></g><g><path d="M148.116 64.11L111.11 85.477 74.105 64.11V21.38L111.11.015l37.006 21.365z" fill="#fff"/><path d="M415.875 74.438a.707.707 0 0 0-.28.093L398.06 84.657a.707.707 0 0 0-.375.625v20.282a.707.707 0 0 0 .375.626l17.532 10.124a.707.707 0 0 0 .687 0l17.533-10.124a.707.707 0 0 0 .375-.626v-20.28a.707.707 0 0 0-.375-.626L416.28 74.53a.707.707 0 0 0-.405-.093z" transform="matrix(1.85 0 0 1.85 -658.484 -133.797)" fill="#ffa765"/></g></g></svg>